<mxfile host="app.diagrams.net" modified="2022-06-09T03:02:07.320Z" agent="5.0 (Windows NT 10.0; Win64; x64) AppleWebKit/537.36 (KHTML, like Gecko) Chrome/102.0.5005.63 Safari/537.36" etag="w4GASbZa46HficzP3VWo" version="19.0.2" type="github">
  <diagram id="BiWdn6pCWBrNX4G0EB6R" name="Page-1">
    <mxGraphModel dx="1422" dy="762" grid="1" gridSize="10" guides="1" tooltips="1" connect="1" arrows="1" fold="1" page="1" pageScale="1" pageWidth="2339" pageHeight="3300" math="0" shadow="0">
      <root>
        <mxCell id="0" />
        <mxCell id="1" parent="0" />
        <mxCell id="C3d5GvJ_J4JVkLSLOHPJ-57" value="&lt;b&gt;&lt;i&gt;堆区&lt;/i&gt;&lt;/b&gt;" style="rounded=0;whiteSpace=wrap;html=1;sketch=1;fontSize=18;fillColor=#f9f7ed;strokeColor=#36393d;" vertex="1" parent="1">
          <mxGeometry x="370" y="1750" width="240" height="270" as="geometry" />
        </mxCell>
        <mxCell id="C3d5GvJ_J4JVkLSLOHPJ-22" value="" style="rounded=0;whiteSpace=wrap;html=1;shadow=0;sketch=1;fontSize=18;fillColor=#d0cee2;strokeColor=#56517e;" vertex="1" parent="1">
          <mxGeometry x="25" y="490" width="280" height="320" as="geometry" />
        </mxCell>
        <mxCell id="C3d5GvJ_J4JVkLSLOHPJ-12" value="" style="rounded=0;whiteSpace=wrap;html=1;fillColor=#f5f5f5;fontColor=#333333;strokeColor=#666666;sketch=1;" vertex="1" parent="1">
          <mxGeometry x="330" y="490" width="600" height="320" as="geometry" />
        </mxCell>
        <mxCell id="C3d5GvJ_J4JVkLSLOHPJ-21" value="&lt;b&gt;&lt;i&gt;堆区&lt;/i&gt;&lt;/b&gt;" style="rounded=0;whiteSpace=wrap;html=1;sketch=1;fontSize=18;fillColor=#f9f7ed;strokeColor=#36393d;shadow=0;" vertex="1" parent="1">
          <mxGeometry x="660" y="530" width="240" height="270" as="geometry" />
        </mxCell>
        <mxCell id="C3d5GvJ_J4JVkLSLOHPJ-1" value="" style="rounded=0;whiteSpace=wrap;html=1;fillColor=#f5f5f5;fontColor=#333333;strokeColor=#666666;sketch=1;" vertex="1" parent="1">
          <mxGeometry x="340" y="100" width="600" height="320" as="geometry" />
        </mxCell>
        <mxCell id="C3d5GvJ_J4JVkLSLOHPJ-2" value="&lt;font style=&quot;font-size: 18px;&quot;&gt;&lt;b&gt;&lt;i&gt;JDK 1.6 内存结构&lt;/i&gt;&lt;/b&gt;&lt;/font&gt;" style="text;html=1;align=center;verticalAlign=middle;resizable=0;points=[];autosize=1;strokeColor=none;fillColor=none;" vertex="1" parent="1">
          <mxGeometry x="560" y="110" width="160" height="20" as="geometry" />
        </mxCell>
        <mxCell id="C3d5GvJ_J4JVkLSLOHPJ-3" value="" style="rounded=0;whiteSpace=wrap;html=1;sketch=1;fontSize=18;fillColor=#dae8fc;strokeColor=#6c8ebf;" vertex="1" parent="1">
          <mxGeometry x="370" y="140" width="250" height="270" as="geometry" />
        </mxCell>
        <mxCell id="C3d5GvJ_J4JVkLSLOHPJ-4" value="&lt;font style=&quot;font-size: 18px;&quot;&gt;&lt;b&gt;&lt;i&gt;方法区（概念）&lt;br&gt;永久代（实现）&lt;br&gt;&lt;/i&gt;&lt;/b&gt;&lt;/font&gt;" style="text;html=1;align=center;verticalAlign=middle;resizable=0;points=[];autosize=1;strokeColor=none;fillColor=none;" vertex="1" parent="1">
          <mxGeometry x="425" y="150" width="140" height="40" as="geometry" />
        </mxCell>
        <mxCell id="C3d5GvJ_J4JVkLSLOHPJ-5" value="" style="rounded=0;whiteSpace=wrap;html=1;sketch=1;fontSize=18;fillColor=#fad9d5;strokeColor=#ae4132;" vertex="1" parent="1">
          <mxGeometry x="390" y="200" width="210" height="90" as="geometry" />
        </mxCell>
        <mxCell id="C3d5GvJ_J4JVkLSLOHPJ-6" value="&lt;font style=&quot;font-size: 18px;&quot;&gt;&lt;b&gt;&lt;i&gt;运行时常量池&lt;/i&gt;&lt;/b&gt;&lt;/font&gt;" style="text;html=1;align=center;verticalAlign=middle;resizable=0;points=[];autosize=1;strokeColor=none;fillColor=none;" vertex="1" parent="1">
          <mxGeometry x="435" y="210" width="120" height="20" as="geometry" />
        </mxCell>
        <mxCell id="C3d5GvJ_J4JVkLSLOHPJ-7" value="&lt;b&gt;&lt;i&gt;字符串常量池&lt;/i&gt;&lt;/b&gt;" style="rounded=0;whiteSpace=wrap;html=1;sketch=1;fontSize=18;fillColor=#f8cecc;strokeColor=#b85450;" vertex="1" parent="1">
          <mxGeometry x="415" y="240" width="160" height="40" as="geometry" />
        </mxCell>
        <mxCell id="C3d5GvJ_J4JVkLSLOHPJ-8" value="&lt;b&gt;&lt;i&gt;类元信息&lt;/i&gt;&lt;/b&gt;" style="rounded=0;whiteSpace=wrap;html=1;sketch=1;fontSize=18;fillColor=#cdeb8b;strokeColor=#36393d;" vertex="1" parent="1">
          <mxGeometry x="390" y="310" width="100" height="60" as="geometry" />
        </mxCell>
        <mxCell id="C3d5GvJ_J4JVkLSLOHPJ-9" value="&lt;b&gt;&lt;i&gt;类加载器&lt;/i&gt;&lt;/b&gt;" style="rounded=0;whiteSpace=wrap;html=1;sketch=1;fontSize=18;fillColor=#cdeb8b;strokeColor=#36393d;" vertex="1" parent="1">
          <mxGeometry x="500" y="310" width="100" height="60" as="geometry" />
        </mxCell>
        <mxCell id="C3d5GvJ_J4JVkLSLOHPJ-11" value="&lt;b&gt;&lt;i&gt;堆区&lt;/i&gt;&lt;/b&gt;" style="rounded=0;whiteSpace=wrap;html=1;sketch=1;fontSize=18;fillColor=#f9f7ed;strokeColor=#36393d;" vertex="1" parent="1">
          <mxGeometry x="660" y="140" width="240" height="270" as="geometry" />
        </mxCell>
        <mxCell id="C3d5GvJ_J4JVkLSLOHPJ-13" value="&lt;font style=&quot;font-size: 18px;&quot;&gt;&lt;b&gt;&lt;i&gt;JDK 1.8 内存结构&lt;/i&gt;&lt;/b&gt;&lt;/font&gt;" style="text;html=1;align=center;verticalAlign=middle;resizable=0;points=[];autosize=1;strokeColor=none;fillColor=none;" vertex="1" parent="1">
          <mxGeometry x="560" y="500" width="160" height="20" as="geometry" />
        </mxCell>
        <mxCell id="C3d5GvJ_J4JVkLSLOHPJ-14" value="" style="rounded=0;whiteSpace=wrap;html=1;sketch=1;fontSize=18;fillColor=#dae8fc;strokeColor=#6c8ebf;" vertex="1" parent="1">
          <mxGeometry x="40" y="530" width="250" height="270" as="geometry" />
        </mxCell>
        <mxCell id="C3d5GvJ_J4JVkLSLOHPJ-15" value="&lt;font style=&quot;font-size: 18px;&quot;&gt;&lt;b&gt;&lt;i&gt;&lt;br&gt;元空间（实现）&lt;br&gt;&lt;/i&gt;&lt;/b&gt;&lt;/font&gt;" style="text;html=1;align=center;verticalAlign=middle;resizable=0;points=[];autosize=1;strokeColor=none;fillColor=none;" vertex="1" parent="1">
          <mxGeometry x="95" y="540" width="140" height="40" as="geometry" />
        </mxCell>
        <mxCell id="C3d5GvJ_J4JVkLSLOHPJ-16" value="" style="rounded=0;whiteSpace=wrap;html=1;sketch=1;fontSize=18;fillColor=#fad9d5;strokeColor=#ae4132;" vertex="1" parent="1">
          <mxGeometry x="60" y="590" width="210" height="90" as="geometry" />
        </mxCell>
        <mxCell id="C3d5GvJ_J4JVkLSLOHPJ-17" value="&lt;font style=&quot;font-size: 18px;&quot;&gt;&lt;b&gt;&lt;i&gt;运行时常量池&lt;/i&gt;&lt;/b&gt;&lt;/font&gt;" style="text;html=1;align=center;verticalAlign=middle;resizable=0;points=[];autosize=1;strokeColor=none;fillColor=none;" vertex="1" parent="1">
          <mxGeometry x="105" y="625" width="120" height="20" as="geometry" />
        </mxCell>
        <mxCell id="C3d5GvJ_J4JVkLSLOHPJ-18" value="&lt;b&gt;&lt;i&gt;字符串常量池&lt;/i&gt;&lt;/b&gt;" style="rounded=0;whiteSpace=wrap;html=1;sketch=1;fontSize=18;fillColor=#fad9d5;strokeColor=#ae4132;" vertex="1" parent="1">
          <mxGeometry x="700" y="710" width="160" height="40" as="geometry" />
        </mxCell>
        <mxCell id="C3d5GvJ_J4JVkLSLOHPJ-19" value="&lt;b&gt;&lt;i&gt;类元信息&lt;/i&gt;&lt;/b&gt;" style="rounded=0;whiteSpace=wrap;html=1;sketch=1;fontSize=18;fillColor=#cdeb8b;strokeColor=#36393d;" vertex="1" parent="1">
          <mxGeometry x="60" y="700" width="100" height="60" as="geometry" />
        </mxCell>
        <mxCell id="C3d5GvJ_J4JVkLSLOHPJ-20" value="&lt;b&gt;&lt;i&gt;类加载器&lt;/i&gt;&lt;/b&gt;" style="rounded=0;whiteSpace=wrap;html=1;sketch=1;fontSize=18;fillColor=#cdeb8b;strokeColor=#36393d;" vertex="1" parent="1">
          <mxGeometry x="170" y="700" width="100" height="60" as="geometry" />
        </mxCell>
        <mxCell id="C3d5GvJ_J4JVkLSLOHPJ-23" value="&lt;b style=&quot;color: rgb(0, 0, 0); font-family: Helvetica; font-size: 18px; font-style: normal; font-variant-ligatures: normal; font-variant-caps: normal; letter-spacing: normal; orphans: 2; text-align: center; text-indent: 0px; text-transform: none; widows: 2; word-spacing: 0px; -webkit-text-stroke-width: 0px; background-color: rgb(248, 249, 250); text-decoration-thickness: initial; text-decoration-style: initial; text-decoration-color: initial;&quot;&gt;&lt;i&gt;本地内存&lt;/i&gt;&lt;/b&gt;" style="text;whiteSpace=wrap;html=1;fontSize=18;" vertex="1" parent="1">
          <mxGeometry x="120" y="490" width="170" height="40" as="geometry" />
        </mxCell>
        <mxCell id="C3d5GvJ_J4JVkLSLOHPJ-25" value="" style="edgeStyle=orthogonalEdgeStyle;rounded=0;orthogonalLoop=1;jettySize=auto;html=1;fontSize=18;" edge="1" parent="1" source="C3d5GvJ_J4JVkLSLOHPJ-24" target="C3d5GvJ_J4JVkLSLOHPJ-22">
          <mxGeometry relative="1" as="geometry" />
        </mxCell>
        <mxCell id="C3d5GvJ_J4JVkLSLOHPJ-24" value="&lt;b style=&quot;&quot;&gt;&lt;i&gt;方法区&lt;br&gt;（概念）&lt;/i&gt;&lt;/b&gt;" style="rounded=0;whiteSpace=wrap;html=1;sketch=1;fontSize=18;fillColor=#cdeb8b;strokeColor=#36393d;dashed=1;" vertex="1" parent="1">
          <mxGeometry x="415" y="620" width="100" height="60" as="geometry" />
        </mxCell>
        <mxCell id="C3d5GvJ_J4JVkLSLOHPJ-26" value="&lt;font style=&quot;font-size: 18px;&quot;&gt;&lt;b&gt;&lt;i&gt;JDK 1.8之前使用永久代实现的方法区，&lt;br&gt;它属于堆逻辑上的一部分，但实际内存&lt;br&gt;在JVM堆区以外，方法区中的字符串常&lt;br&gt;量池处于运行时常量池中&lt;br&gt;&lt;br&gt;JDK 1.8之后完全放弃了永久代，使用&lt;br&gt;元空间来实现方法区；并且方法区搬离&lt;br&gt;了JVM内存，开始将其存储在本地内存&lt;br&gt;中，但字符串常量池移动到了JVM堆区&lt;br&gt;内存中&lt;br&gt;&lt;/i&gt;&lt;/b&gt;&lt;/font&gt;" style="text;html=1;align=left;verticalAlign=middle;resizable=0;points=[];autosize=1;strokeColor=none;fillColor=none;" vertex="1" parent="1">
          <mxGeometry x="10" y="175" width="330" height="170" as="geometry" />
        </mxCell>
        <mxCell id="C3d5GvJ_J4JVkLSLOHPJ-27" value="" style="rounded=0;whiteSpace=wrap;html=1;fillColor=#f5f5f5;fontColor=#333333;strokeColor=#666666;sketch=1;" vertex="1" parent="1">
          <mxGeometry x="30" y="930" width="650" height="200" as="geometry" />
        </mxCell>
        <mxCell id="C3d5GvJ_J4JVkLSLOHPJ-28" value="&lt;b&gt;&lt;i&gt;类型信息&lt;br&gt;Class&lt;br&gt;&lt;/i&gt;&lt;/b&gt;" style="rounded=0;whiteSpace=wrap;html=1;shadow=0;sketch=1;fontSize=18;fillColor=#fad7ac;strokeColor=#b46504;" vertex="1" parent="1">
          <mxGeometry x="80" y="950" width="120" height="60" as="geometry" />
        </mxCell>
        <mxCell id="C3d5GvJ_J4JVkLSLOHPJ-29" value="&lt;b&gt;&lt;i&gt;运行时常量池&lt;br&gt;Constant Pool&lt;br&gt;&lt;/i&gt;&lt;/b&gt;" style="rounded=0;whiteSpace=wrap;html=1;shadow=0;sketch=1;fontSize=18;fillColor=#fad7ac;strokeColor=#b46504;" vertex="1" parent="1">
          <mxGeometry x="270" y="950" width="130" height="60" as="geometry" />
        </mxCell>
        <mxCell id="C3d5GvJ_J4JVkLSLOHPJ-30" value="&lt;b&gt;&lt;i&gt;属性信息&lt;br&gt;Feild&amp;nbsp;&lt;/i&gt;&lt;/b&gt;&lt;b&gt;&lt;i&gt;&lt;br&gt;&lt;/i&gt;&lt;/b&gt;" style="rounded=0;whiteSpace=wrap;html=1;shadow=0;sketch=1;fontSize=18;fillColor=#fad7ac;strokeColor=#b46504;" vertex="1" parent="1">
          <mxGeometry x="80" y="1040" width="120" height="60" as="geometry" />
        </mxCell>
        <mxCell id="C3d5GvJ_J4JVkLSLOHPJ-31" value="&lt;b&gt;&lt;i&gt;方法信息&lt;br&gt;Method&lt;/i&gt;&lt;/b&gt;&lt;b&gt;&lt;i&gt;&lt;br&gt;&lt;/i&gt;&lt;/b&gt;" style="rounded=0;whiteSpace=wrap;html=1;shadow=0;sketch=1;fontSize=18;fillColor=#fad7ac;strokeColor=#b46504;" vertex="1" parent="1">
          <mxGeometry x="270" y="1040" width="130" height="60" as="geometry" />
        </mxCell>
        <mxCell id="C3d5GvJ_J4JVkLSLOHPJ-32" value="&lt;b&gt;&lt;i&gt;静态变量&lt;br&gt;&lt;/i&gt;&lt;/b&gt;&lt;b&gt;&lt;i&gt;Static&lt;br&gt;&lt;/i&gt;&lt;/b&gt;" style="rounded=0;whiteSpace=wrap;html=1;shadow=0;sketch=1;fontSize=18;fillColor=#fad7ac;strokeColor=#b46504;" vertex="1" parent="1">
          <mxGeometry x="470" y="1040" width="130" height="60" as="geometry" />
        </mxCell>
        <mxCell id="C3d5GvJ_J4JVkLSLOHPJ-33" value="&lt;b&gt;&lt;i&gt;即时编译器&lt;br&gt;JIT缓存&lt;br&gt;&lt;/i&gt;&lt;/b&gt;" style="rounded=0;whiteSpace=wrap;html=1;shadow=0;sketch=1;fontSize=18;fillColor=#fad7ac;strokeColor=#b46504;" vertex="1" parent="1">
          <mxGeometry x="470" y="950" width="130" height="60" as="geometry" />
        </mxCell>
        <mxCell id="C3d5GvJ_J4JVkLSLOHPJ-34" value="" style="rounded=0;whiteSpace=wrap;html=1;fillColor=#f5f5f5;fontColor=#333333;strokeColor=#666666;sketch=1;" vertex="1" parent="1">
          <mxGeometry x="50" y="1290" width="650" height="390" as="geometry" />
        </mxCell>
        <mxCell id="C3d5GvJ_J4JVkLSLOHPJ-35" value="&lt;font style=&quot;font-size: 18px;&quot;&gt;&lt;b&gt;&lt;i&gt;JDK 1.6 内存结构&lt;/i&gt;&lt;/b&gt;&lt;/font&gt;" style="text;html=1;align=center;verticalAlign=middle;resizable=0;points=[];autosize=1;strokeColor=none;fillColor=none;" vertex="1" parent="1">
          <mxGeometry x="270" y="1300" width="160" height="20" as="geometry" />
        </mxCell>
        <mxCell id="C3d5GvJ_J4JVkLSLOHPJ-36" value="" style="rounded=0;whiteSpace=wrap;html=1;sketch=0;fontSize=18;fillColor=#dae8fc;strokeColor=#6c8ebf;" vertex="1" parent="1">
          <mxGeometry x="80" y="1330" width="250" height="330" as="geometry" />
        </mxCell>
        <mxCell id="C3d5GvJ_J4JVkLSLOHPJ-37" value="&lt;font style=&quot;font-size: 18px;&quot;&gt;&lt;b&gt;&lt;i&gt;永久代&lt;br&gt;&lt;/i&gt;&lt;/b&gt;&lt;/font&gt;" style="text;html=1;align=center;verticalAlign=middle;resizable=0;points=[];autosize=1;strokeColor=none;fillColor=none;" vertex="1" parent="1">
          <mxGeometry x="170" y="1330" width="70" height="20" as="geometry" />
        </mxCell>
        <mxCell id="C3d5GvJ_J4JVkLSLOHPJ-38" value="" style="rounded=0;whiteSpace=wrap;html=1;sketch=0;fontSize=18;fillColor=#d5e8d4;strokeColor=#82b366;" vertex="1" parent="1">
          <mxGeometry x="95" y="1350" width="210" height="90" as="geometry" />
        </mxCell>
        <mxCell id="C3d5GvJ_J4JVkLSLOHPJ-39" value="&lt;font style=&quot;font-size: 18px;&quot;&gt;&lt;b&gt;&lt;i&gt;运行时常量池&lt;/i&gt;&lt;/b&gt;&lt;/font&gt;" style="text;html=1;align=center;verticalAlign=middle;resizable=0;points=[];autosize=1;strokeColor=none;fillColor=none;" vertex="1" parent="1">
          <mxGeometry x="150" y="1360" width="120" height="20" as="geometry" />
        </mxCell>
        <mxCell id="C3d5GvJ_J4JVkLSLOHPJ-40" value="&lt;b&gt;&lt;i&gt;字符串常量池&lt;/i&gt;&lt;/b&gt;" style="rounded=0;whiteSpace=wrap;html=1;sketch=0;fontSize=18;fillColor=#f8cecc;strokeColor=#b85450;" vertex="1" parent="1">
          <mxGeometry x="120" y="1390" width="160" height="40" as="geometry" />
        </mxCell>
        <mxCell id="C3d5GvJ_J4JVkLSLOHPJ-41" value="&lt;b&gt;&lt;i&gt;类型信息&lt;/i&gt;&lt;/b&gt;" style="rounded=0;whiteSpace=wrap;html=1;sketch=0;fontSize=18;fillColor=#d5e8d4;strokeColor=#82b366;" vertex="1" parent="1">
          <mxGeometry x="100" y="1465" width="100" height="60" as="geometry" />
        </mxCell>
        <mxCell id="C3d5GvJ_J4JVkLSLOHPJ-42" value="&lt;b&gt;&lt;i&gt;属性信息&lt;/i&gt;&lt;/b&gt;" style="rounded=0;whiteSpace=wrap;html=1;sketch=0;fontSize=18;fillColor=#d5e8d4;strokeColor=#82b366;" vertex="1" parent="1">
          <mxGeometry x="220" y="1465" width="100" height="60" as="geometry" />
        </mxCell>
        <mxCell id="C3d5GvJ_J4JVkLSLOHPJ-43" value="&lt;b&gt;&lt;i&gt;堆区&lt;/i&gt;&lt;/b&gt;" style="rounded=0;whiteSpace=wrap;html=1;sketch=1;fontSize=18;fillColor=#f9f7ed;strokeColor=#36393d;" vertex="1" parent="1">
          <mxGeometry x="370" y="1330" width="240" height="270" as="geometry" />
        </mxCell>
        <mxCell id="C3d5GvJ_J4JVkLSLOHPJ-44" value="&lt;b&gt;&lt;i&gt;方法信息&lt;/i&gt;&lt;/b&gt;" style="rounded=0;whiteSpace=wrap;html=1;sketch=0;fontSize=18;fillColor=#d5e8d4;strokeColor=#82b366;" vertex="1" parent="1">
          <mxGeometry x="100" y="1540" width="100" height="60" as="geometry" />
        </mxCell>
        <mxCell id="C3d5GvJ_J4JVkLSLOHPJ-46" value="&lt;b&gt;&lt;i&gt;JIT&lt;br&gt;代码缓存&lt;/i&gt;&lt;/b&gt;" style="rounded=0;whiteSpace=wrap;html=1;sketch=0;fontSize=18;fillColor=#d5e8d4;strokeColor=#82b366;" vertex="1" parent="1">
          <mxGeometry x="220" y="1540" width="100" height="60" as="geometry" />
        </mxCell>
        <mxCell id="C3d5GvJ_J4JVkLSLOHPJ-47" value="&lt;b&gt;&lt;i&gt;静态变量&lt;/i&gt;&lt;/b&gt;" style="rounded=0;whiteSpace=wrap;html=1;sketch=0;fontSize=18;fillColor=#f8cecc;strokeColor=#b85450;" vertex="1" parent="1">
          <mxGeometry x="120" y="1610" width="160" height="40" as="geometry" />
        </mxCell>
        <mxCell id="C3d5GvJ_J4JVkLSLOHPJ-48" value="" style="rounded=0;whiteSpace=wrap;html=1;fillColor=#f5f5f5;fontColor=#333333;strokeColor=#666666;sketch=1;" vertex="1" parent="1">
          <mxGeometry x="50" y="1710" width="650" height="390" as="geometry" />
        </mxCell>
        <mxCell id="C3d5GvJ_J4JVkLSLOHPJ-49" value="&lt;font style=&quot;font-size: 18px;&quot;&gt;&lt;b&gt;&lt;i&gt;JDK 1.7 内存结构&lt;/i&gt;&lt;/b&gt;&lt;/font&gt;" style="text;html=1;align=center;verticalAlign=middle;resizable=0;points=[];autosize=1;strokeColor=none;fillColor=none;" vertex="1" parent="1">
          <mxGeometry x="270" y="1720" width="160" height="20" as="geometry" />
        </mxCell>
        <mxCell id="C3d5GvJ_J4JVkLSLOHPJ-50" value="" style="rounded=0;whiteSpace=wrap;html=1;sketch=0;fontSize=18;fillColor=#dae8fc;strokeColor=#6c8ebf;" vertex="1" parent="1">
          <mxGeometry x="80" y="1750" width="250" height="310" as="geometry" />
        </mxCell>
        <mxCell id="C3d5GvJ_J4JVkLSLOHPJ-51" value="&lt;font style=&quot;font-size: 18px;&quot;&gt;&lt;b&gt;&lt;i&gt;永久代&lt;br&gt;&lt;/i&gt;&lt;/b&gt;&lt;/font&gt;" style="text;html=1;align=center;verticalAlign=middle;resizable=0;points=[];autosize=1;strokeColor=none;fillColor=none;" vertex="1" parent="1">
          <mxGeometry x="170" y="1750" width="70" height="20" as="geometry" />
        </mxCell>
        <mxCell id="C3d5GvJ_J4JVkLSLOHPJ-52" value="" style="rounded=0;whiteSpace=wrap;html=1;sketch=0;fontSize=18;fillColor=#d5e8d4;strokeColor=#82b366;" vertex="1" parent="1">
          <mxGeometry x="95" y="1770" width="210" height="90" as="geometry" />
        </mxCell>
        <mxCell id="C3d5GvJ_J4JVkLSLOHPJ-53" value="&lt;font style=&quot;font-size: 18px;&quot;&gt;&lt;b&gt;&lt;i&gt;运行时常量池&lt;/i&gt;&lt;/b&gt;&lt;/font&gt;" style="text;html=1;align=center;verticalAlign=middle;resizable=0;points=[];autosize=1;strokeColor=none;fillColor=none;" vertex="1" parent="1">
          <mxGeometry x="140" y="1805" width="120" height="20" as="geometry" />
        </mxCell>
        <mxCell id="C3d5GvJ_J4JVkLSLOHPJ-54" value="&lt;b&gt;&lt;i&gt;字符串常量池&lt;/i&gt;&lt;/b&gt;" style="rounded=0;whiteSpace=wrap;html=1;sketch=0;fontSize=18;fillColor=#f8cecc;strokeColor=#b85450;" vertex="1" parent="1">
          <mxGeometry x="415" y="1820" width="160" height="40" as="geometry" />
        </mxCell>
        <mxCell id="C3d5GvJ_J4JVkLSLOHPJ-55" value="&lt;b&gt;&lt;i&gt;类型信息&lt;/i&gt;&lt;/b&gt;" style="rounded=0;whiteSpace=wrap;html=1;sketch=0;fontSize=18;fillColor=#d5e8d4;strokeColor=#82b366;" vertex="1" parent="1">
          <mxGeometry x="100" y="1885" width="100" height="60" as="geometry" />
        </mxCell>
        <mxCell id="C3d5GvJ_J4JVkLSLOHPJ-56" value="&lt;b&gt;&lt;i&gt;属性信息&lt;/i&gt;&lt;/b&gt;" style="rounded=0;whiteSpace=wrap;html=1;sketch=0;fontSize=18;fillColor=#d5e8d4;strokeColor=#82b366;" vertex="1" parent="1">
          <mxGeometry x="220" y="1885" width="100" height="60" as="geometry" />
        </mxCell>
        <mxCell id="C3d5GvJ_J4JVkLSLOHPJ-58" value="&lt;b&gt;&lt;i&gt;方法信息&lt;/i&gt;&lt;/b&gt;" style="rounded=0;whiteSpace=wrap;html=1;sketch=0;fontSize=18;fillColor=#d5e8d4;strokeColor=#82b366;" vertex="1" parent="1">
          <mxGeometry x="100" y="1960" width="100" height="60" as="geometry" />
        </mxCell>
        <mxCell id="C3d5GvJ_J4JVkLSLOHPJ-59" value="&lt;b&gt;&lt;i&gt;JIT&lt;br&gt;代码缓存&lt;/i&gt;&lt;/b&gt;" style="rounded=0;whiteSpace=wrap;html=1;sketch=0;fontSize=18;fillColor=#d5e8d4;strokeColor=#82b366;" vertex="1" parent="1">
          <mxGeometry x="220" y="1960" width="100" height="60" as="geometry" />
        </mxCell>
        <mxCell id="C3d5GvJ_J4JVkLSLOHPJ-60" value="&lt;b&gt;&lt;i&gt;静态变量&lt;/i&gt;&lt;/b&gt;" style="rounded=0;whiteSpace=wrap;html=1;sketch=0;fontSize=18;fillColor=#f8cecc;strokeColor=#b85450;" vertex="1" parent="1">
          <mxGeometry x="410" y="1940" width="160" height="40" as="geometry" />
        </mxCell>
        <mxCell id="C3d5GvJ_J4JVkLSLOHPJ-61" value="" style="rounded=0;whiteSpace=wrap;html=1;shadow=0;sketch=1;fontSize=18;fillColor=#d0cee2;strokeColor=#56517e;" vertex="1" parent="1">
          <mxGeometry x="40" y="2210" width="280" height="320" as="geometry" />
        </mxCell>
        <mxCell id="C3d5GvJ_J4JVkLSLOHPJ-62" value="" style="rounded=0;whiteSpace=wrap;html=1;fillColor=#f5f5f5;fontColor=#333333;strokeColor=#666666;sketch=1;" vertex="1" parent="1">
          <mxGeometry x="345" y="2210" width="600" height="320" as="geometry" />
        </mxCell>
        <mxCell id="C3d5GvJ_J4JVkLSLOHPJ-63" value="&lt;b&gt;&lt;i&gt;堆区&lt;/i&gt;&lt;/b&gt;" style="rounded=0;whiteSpace=wrap;html=1;sketch=1;fontSize=18;fillColor=#f9f7ed;strokeColor=#36393d;shadow=0;" vertex="1" parent="1">
          <mxGeometry x="675" y="2250" width="240" height="270" as="geometry" />
        </mxCell>
        <mxCell id="C3d5GvJ_J4JVkLSLOHPJ-64" value="&lt;font style=&quot;font-size: 18px;&quot;&gt;&lt;b&gt;&lt;i&gt;JDK 1.8 内存结构&lt;/i&gt;&lt;/b&gt;&lt;/font&gt;" style="text;html=1;align=center;verticalAlign=middle;resizable=0;points=[];autosize=1;strokeColor=none;fillColor=none;" vertex="1" parent="1">
          <mxGeometry x="575" y="2220" width="160" height="20" as="geometry" />
        </mxCell>
        <mxCell id="C3d5GvJ_J4JVkLSLOHPJ-65" value="" style="rounded=0;whiteSpace=wrap;html=1;sketch=0;fontSize=18;fillColor=#dae8fc;strokeColor=#6c8ebf;" vertex="1" parent="1">
          <mxGeometry x="55" y="2250" width="250" height="270" as="geometry" />
        </mxCell>
        <mxCell id="C3d5GvJ_J4JVkLSLOHPJ-66" value="&lt;font style=&quot;font-size: 18px;&quot;&gt;&lt;b&gt;&lt;i&gt;&lt;br&gt;元空间（实现）&lt;br&gt;&lt;/i&gt;&lt;/b&gt;&lt;/font&gt;" style="text;html=1;align=center;verticalAlign=middle;resizable=0;points=[];autosize=1;strokeColor=none;fillColor=none;" vertex="1" parent="1">
          <mxGeometry x="112.5" y="2240" width="140" height="40" as="geometry" />
        </mxCell>
        <mxCell id="C3d5GvJ_J4JVkLSLOHPJ-67" value="" style="rounded=0;whiteSpace=wrap;html=1;sketch=0;fontSize=18;fillColor=#d5e8d4;strokeColor=#82b366;" vertex="1" parent="1">
          <mxGeometry x="75" y="2280" width="215" height="70" as="geometry" />
        </mxCell>
        <mxCell id="C3d5GvJ_J4JVkLSLOHPJ-68" value="&lt;font style=&quot;font-size: 18px;&quot;&gt;&lt;b&gt;&lt;i&gt;运行时常量池&lt;/i&gt;&lt;/b&gt;&lt;/font&gt;" style="text;html=1;align=center;verticalAlign=middle;resizable=0;points=[];autosize=1;strokeColor=none;fillColor=none;" vertex="1" parent="1">
          <mxGeometry x="120" y="2300" width="120" height="20" as="geometry" />
        </mxCell>
        <mxCell id="C3d5GvJ_J4JVkLSLOHPJ-72" value="&lt;b style=&quot;color: rgb(0, 0, 0); font-family: Helvetica; font-size: 18px; font-style: normal; font-variant-ligatures: normal; font-variant-caps: normal; letter-spacing: normal; orphans: 2; text-align: center; text-indent: 0px; text-transform: none; widows: 2; word-spacing: 0px; -webkit-text-stroke-width: 0px; background-color: rgb(248, 249, 250); text-decoration-thickness: initial; text-decoration-style: initial; text-decoration-color: initial;&quot;&gt;&lt;i&gt;本地内存&lt;/i&gt;&lt;/b&gt;" style="text;whiteSpace=wrap;html=1;fontSize=18;" vertex="1" parent="1">
          <mxGeometry x="135" y="2210" width="170" height="40" as="geometry" />
        </mxCell>
        <mxCell id="C3d5GvJ_J4JVkLSLOHPJ-73" value="" style="edgeStyle=orthogonalEdgeStyle;rounded=0;orthogonalLoop=1;jettySize=auto;html=1;fontSize=18;" edge="1" parent="1" source="C3d5GvJ_J4JVkLSLOHPJ-74" target="C3d5GvJ_J4JVkLSLOHPJ-61">
          <mxGeometry relative="1" as="geometry" />
        </mxCell>
        <mxCell id="C3d5GvJ_J4JVkLSLOHPJ-74" value="&lt;b style=&quot;&quot;&gt;&lt;i&gt;方法区&lt;br&gt;（概念）&lt;/i&gt;&lt;/b&gt;" style="rounded=0;whiteSpace=wrap;html=1;sketch=1;fontSize=18;fillColor=#cdeb8b;strokeColor=#36393d;dashed=1;" vertex="1" parent="1">
          <mxGeometry x="430" y="2340" width="100" height="60" as="geometry" />
        </mxCell>
        <mxCell id="C3d5GvJ_J4JVkLSLOHPJ-75" value="&lt;b&gt;&lt;i&gt;类型信息&lt;/i&gt;&lt;/b&gt;" style="rounded=0;whiteSpace=wrap;html=1;sketch=0;fontSize=18;fillColor=#d5e8d4;strokeColor=#82b366;" vertex="1" parent="1">
          <mxGeometry x="70" y="2370" width="100" height="60" as="geometry" />
        </mxCell>
        <mxCell id="C3d5GvJ_J4JVkLSLOHPJ-76" value="&lt;b&gt;&lt;i&gt;属性信息&lt;/i&gt;&lt;/b&gt;" style="rounded=0;whiteSpace=wrap;html=1;sketch=0;fontSize=18;fillColor=#d5e8d4;strokeColor=#82b366;" vertex="1" parent="1">
          <mxGeometry x="190" y="2370" width="100" height="60" as="geometry" />
        </mxCell>
        <mxCell id="C3d5GvJ_J4JVkLSLOHPJ-77" value="&lt;b&gt;&lt;i&gt;方法信息&lt;/i&gt;&lt;/b&gt;" style="rounded=0;whiteSpace=wrap;html=1;sketch=0;fontSize=18;fillColor=#d5e8d4;strokeColor=#82b366;" vertex="1" parent="1">
          <mxGeometry x="70" y="2445" width="100" height="60" as="geometry" />
        </mxCell>
        <mxCell id="C3d5GvJ_J4JVkLSLOHPJ-78" value="&lt;b&gt;&lt;i&gt;JIT&lt;br&gt;代码缓存&lt;/i&gt;&lt;/b&gt;" style="rounded=0;whiteSpace=wrap;html=1;sketch=0;fontSize=18;fillColor=#d5e8d4;strokeColor=#82b366;" vertex="1" parent="1">
          <mxGeometry x="190" y="2445" width="100" height="60" as="geometry" />
        </mxCell>
        <mxCell id="C3d5GvJ_J4JVkLSLOHPJ-80" value="&lt;b&gt;&lt;i&gt;字符串常量池&lt;/i&gt;&lt;/b&gt;" style="rounded=0;whiteSpace=wrap;html=1;sketch=0;fontSize=18;fillColor=#f8cecc;strokeColor=#b85450;" vertex="1" parent="1">
          <mxGeometry x="717.5" y="2305" width="160" height="40" as="geometry" />
        </mxCell>
        <mxCell id="C3d5GvJ_J4JVkLSLOHPJ-81" value="&lt;b&gt;&lt;i&gt;静态变量&lt;/i&gt;&lt;/b&gt;" style="rounded=0;whiteSpace=wrap;html=1;sketch=0;fontSize=18;fillColor=#f8cecc;strokeColor=#b85450;" vertex="1" parent="1">
          <mxGeometry x="712.5" y="2425" width="160" height="40" as="geometry" />
        </mxCell>
      </root>
    </mxGraphModel>
  </diagram>
</mxfile>
